<svg xmlns="http://www.w3.org/2000/svg" viewBox="0 0 359.33 329.17"><defs><style>.cls-1{fill:#0b080a;}.cls-2{fill:#344153;}.cls-3{fill:#475368;}.cls-4{fill:#333d49;}.cls-5{fill:#394757;}.cls-6{fill:#2f343f;}.cls-7{fill:#444652;}.cls-8{fill:#513e3f;}.cls-9{fill:#0c0d0d;}.cls-10{fill:#0c0c16;}.cls-11{fill:#524443;}.cls-12{fill:#3d3d3f;}.cls-13{fill:#2c2c3c;}.cls-14{fill:#21272c;}.cls-15{fill:#3f4e67;}.cls-16{fill:#111a1e;}.cls-17{fill:#0a0d0d;}.cls-18{fill:#2c2118;}.cls-19{fill:#ffedbb;}.cls-20{fill:#2e2b2f;}</style></defs><title>svg_haunted_house</title><g id="roof"><polygon class="cls-1" points="0 171.67 18 191.67 210.5 194.67 210 212.17 327.5 210.17 347.5 190.67 325 175.67 323.5 167.67 309 167.67 271.5 145.17 207.5 145.67 208.5 107.67 212.5 109.17 214.5 99.17 212 93.17 215.5 92.17 218.17 82.33 210 66.67 209.5 56.17 146.5 56.67 147 76.17 143.17 82.33 143 90.67 147 93.17 144.17 99 143.83 106 76 106.67 55.5 124.17 51 124.17 51 128.67 42 136.17 31.5 135.67 29 146.17 0 171.67"/><polygon class="cls-2" points="144.17 99 150.83 99 150.83 172.17 141.5 176.17 109 165.67 105 139.17 100 125.17 76 106.67 143.83 106 144.17 99"/><polygon class="cls-3" points="155.17 240 138.5 256.33 357.83 256.33 335.5 240.78 155.17 240"/><path class="cls-4" d="M685.17,1112.33s-3.17,13-4.83,18.33-29.67,64-29.67,64h75s-34.67-63.33-35.33-66S685.17,1112.33,685.17,1112.33Z" transform="translate(-507.5 -1112.33)"/><polygon class="cls-5" points="76 106.67 0 171.67 22 172.17 51 164.67 104.5 163.67 145 172.67 150 172.17 105 139.17 100 125.17 76 106.67"/></g><g id="chunks"><polygon class="cls-6" points="18.5 180.25 18.5 328.33 331 328.33 331 195.84 205.25 194.29 204.5 171.94 141.5 176.62 109 165.71 51 164.67 18.5 180.25"/><polygon class="cls-7" points="37.83 322.67 37.83 180 57.5 171.67 102.5 172 134.83 180 133.5 323 102.17 323.67 64.5 324 37.83 322.67"/><path class="cls-7" d="M839,1307H718v46.08H838S838.63,1306.6,839,1307Z" transform="translate(-507.5 -1112.33)"/><rect class="cls-8" x="155.33" y="256.5" width="51.17" height="71.77"/><path class="cls-9" d="M720.75,1373.5v63.25h118.5V1375S721.75,1374.5,720.75,1373.5Z" transform="translate(-507.5 -1112.33)"/><path class="cls-7" d="M658.67,1206.33v145H716v-145Z" transform="translate(-507.5 -1112.33)"/></g><g id="door"><rect class="cls-10" x="166.17" y="258.5" width="28.83" height="61.83"/><rect class="cls-11" x="170.33" y="305.08" width="6.83" height="4"/><rect class="cls-11" x="170.63" y="314.3" width="6.83" height="4"/><rect class="cls-11" x="183.08" y="305.08" width="6.83" height="4"/><rect class="cls-11" x="183.08" y="314.17" width="6.83" height="4"/></g><g id="windows"><path class="cls-12" d="M678.5,1309.5h18.75v35h-19S678.5,1309.13,678.5,1309.5Z" transform="translate(-507.5 -1112.33)"/></g><g id="Layer_8" data-name="Layer 8"><polygon class="cls-13" points="331.13 328.54 350.88 329.17 351 325.54 347.5 325.42 347.38 308.17 331.63 307.79 331.13 328.54"/><path class="cls-14" d="M670,1331.08v18.5h4v-18.42Z" transform="translate(-507.5 -1112.33)"/><path class="cls-14" d="M835,1331.08v18.5h4v-18.42Z" transform="translate(-507.5 -1112.33)"/><path class="cls-14" d="M725.24,1331.08v18.5h4v-18.42Z" transform="translate(-507.5 -1112.33)"/><path class="cls-14" d="M780.24,1335.08v18.5h4v-18.42Z" transform="translate(-507.5 -1112.33)"/><rect class="cls-14" x="163.5" y="220.92" width="165" height="4.25"/><rect class="cls-14" x="163.5" y="234.67" width="165" height="4.25"/><rect class="cls-14" x="173.63" y="221.29" width="2.88" height="16.88"/><rect class="cls-14" x="184" y="221.29" width="2.88" height="16.88"/><rect class="cls-14" x="196.88" y="221.29" width="2.88" height="16.88"/><rect class="cls-14" x="208" y="221.29" width="2.88" height="16.88"/><rect class="cls-14" x="227.75" y="221.29" width="2.88" height="16.88"/><rect class="cls-14" x="247.25" y="221.29" width="2.88" height="16.88"/><rect class="cls-14" x="237.5" y="221.29" width="2.88" height="16.88"/><rect class="cls-14" x="255" y="221.79" width="2.88" height="16.88"/><rect class="cls-14" x="264.88" y="221.79" width="2.88" height="16.88"/><rect class="cls-14" x="283.21" y="222.13" width="2.88" height="16.88"/><rect class="cls-14" x="293.21" y="222.13" width="2.88" height="16.88"/><rect class="cls-14" x="306.04" y="222.13" width="2.88" height="16.88"/><rect class="cls-14" x="317.88" y="222.13" width="2.88" height="16.88"/><path class="cls-15" d="M855,1370.5v67.25h-6V1371S855.5,1370,855,1370.5Z" transform="translate(-507.5 -1112.33)"/><path class="cls-16" d="M839.13,1420.13v1.5H855l1.38-1.37S838.94,1419.94,839.13,1420.13Z" transform="translate(-507.5 -1112.33)"/><polygon class="cls-17" points="359.33 258 357.77 256.32 330.63 256.04 330.5 263.17 346.71 263.17 359.33 258"/><polygon class="cls-18" points="341.83 263.17 331.17 263.17 331.17 307.79 333.17 307.33 333.17 267 341.83 263.17"/></g><g id="lights"><path class="cls-19" d="M560.88,1306.88l-11.25,4.5v35.25l12.25-2.25S560.88,1306.75,560.88,1306.88Z" transform="translate(-507.5 -1112.33)"/><polygon class="cls-19" points="110.25 194.04 110.25 233.04 125.75 234.42 125.63 196.42 110.25 194.04"/><path class="cls-19" d="M577.5,1304.75v40h22.63v-40S577.38,1304.88,577.5,1304.75Z" transform="translate(-507.5 -1112.33)"/><path class="cls-19" d="M578.13,1375.75v48.13h22.13v-48.62Z" transform="translate(-507.5 -1112.33)"/><path class="cls-19" d="M618.63,1377.63V1424H633.5v-44.87S618.75,1377.63,618.63,1377.63Z" transform="translate(-507.5 -1112.33)"/><path class="cls-19" d="M549.63,1378.63l12.21-.22.22,44.85H549.17S549.63,1378.5,549.63,1378.63Z" transform="translate(-507.5 -1112.33)"/><polygon class="cls-19" points="181 197.42 181 232.42 189.38 232.42 189.38 197.53 181 197.42"/><path class="cls-19" d="M678.67,1274.17h18.17V1239h-18.5S678.92,1273.92,678.67,1274.17Z" transform="translate(-507.5 -1112.33)"/><path class="cls-19" d="M587.25,1232.13l-8.06,8.06v19.69h15.94v-19.12S587.63,1232.13,587.25,1232.13Z" transform="translate(-507.5 -1112.33)"/><path class="cls-19" d="M763.13,1280.11v8.83h12.69v-9.27s-5.65-4.48-6.47-4.42S763.13,1280.11,763.13,1280.11Z" transform="translate(-507.5 -1112.33)"/><path class="cls-19" d="M784.5,1326.88v17.25h17.13v-17.37S784.38,1326.75,784.5,1326.88Z" transform="translate(-507.5 -1112.33)"/><path class="cls-19" d="M737.38,1326.75V1346H755v-19.37Z" transform="translate(-507.5 -1112.33)"/><path class="cls-19" d="M677.38,1415.17H684s0-29.25-.17-30.17a4,4,0,0,0-3-2.5,4.2,4.2,0,0,0-3.29,2.13C677.08,1385.71,677.38,1415.17,677.38,1415.17Z" transform="translate(-507.5 -1112.33)"/><path class="cls-19" d="M690.88,1415.17h6.63s0-29.25-.17-30.17a4,4,0,0,0-3-2.5,4.2,4.2,0,0,0-3.29,2.13C690.58,1385.71,690.88,1415.17,690.88,1415.17Z" transform="translate(-507.5 -1112.33)"/><path class="cls-19" d="M737.63,1383.88v6.75H754v-6.5S737.75,1383.75,737.63,1383.88Z" transform="translate(-507.5 -1112.33)"/><path class="cls-19" d="M739,1416.5h6l.25-19.75a3.61,3.61,0,0,0-3.17-2.42c-2.33,0-3.08,2.5-3.08,2.5Z" transform="translate(-507.5 -1112.33)"/><path class="cls-19" d="M746.17,1416.5h6l.25-19.75a3.61,3.61,0,0,0-3.17-2.42c-2.33,0-3.08,2.5-3.08,2.5Z" transform="translate(-507.5 -1112.33)"/><path class="cls-19" d="M784.75,1384.38H802.5v37.5H784.75Z" transform="translate(-507.5 -1112.33)"/><path class="cls-19" d="M681.17,1188.08h13.08l-.25-19.67s-4.33-5.42-6.58-5.42-6.5,5.58-6.5,6.08S681.17,1188.08,681.17,1188.08Z" transform="translate(-507.5 -1112.33)"/><circle class="cls-19" cx="202.09" cy="274.39" r="2.03"/><circle class="cls-19" cx="158.93" cy="273.47" r="2.03"/></g><g id="roof_accents"><polygon class="cls-20" points="81.13 246.92 63.88 264.54 99.25 264.54 81.13 246.92"/><polygon class="cls-20" points="106.5 264 131.33 267 120 248.83 106.5 264"/><polygon class="cls-20" points="38 265.67 56.5 265.17 46.17 249.83 38 265.67"/><polygon class="cls-20" points="64 192.67 97.67 193.33 79.67 177.17 64 192.67"/><polygon class="cls-20" points="62 125.67 95.67 126.33 77.67 110.17 62 125.67"/><polygon class="cls-20" points="223 218.42 256.67 219.08 238.67 202.92 223 218.42"/><polygon class="cls-20" points="250 167.87 277.07 168.42 262.6 155.17 250 167.87"/><polygon class="cls-20" points="269.5 218.67 303.17 219.33 285.17 203.17 269.5 218.67"/><polygon class="cls-20" points="53.83 193.17 35.83 198.17 44.5 180.33 53.83 193.17"/><polygon class="cls-20" points="105.33 193 131.17 198.33 119 179.5 105.33 193"/></g></svg>